<svg xmlns="http://www.w3.org/2000/svg" viewBox="0 0 512 512" role="img" aria-label="Event.u logo">
  <rect width="512" height="512" rx="132" fill="none" />
  <circle cx="256" cy="256" r="182" fill="none" stroke="#FFFFFF" stroke-width="24" />
  <path d="M210 180c0-18 15-33 33-33h34c18 0 33 15 33 33v152c0 18-15 33-33 33h-34c-18 0-33-15-33-33V180Z" fill="#FFFFFF" />
  <path d="M166 228c0-24 20-44 44-44h18v152h-18c-24 0-44-20-44-44v-64Z" fill="#FFFFFF" opacity="0.95" />
  <path d="M314 214h40c29 0 52 23 52 52s-23 52-52 52h-40v-104Z" fill="#FFFFFF" opacity="0.9" />
  <path d="M118 248c0-24 19-43 43-43h12v86h-12c-24 0-43-19-43-43Z" fill="#FFFFFF" opacity="0.85" />
  <path d="M344 154c18-18 47-18 65 0" stroke="#FFFFFF" stroke-width="20" stroke-linecap="round" />
  <path d="M356 358c18 18 47 18 65 0" stroke="#FFFFFF" stroke-width="20" stroke-linecap="round" />
  <path d="M140 138c-22 0-40 18-40 40" stroke="#FFFFFF" stroke-width="16" stroke-linecap="round" />
  <path d="M156 386c-26 0-47-21-47-47" stroke="#FFFFFF" stroke-width="16" stroke-linecap="round" />
  <path d="M342 126c19-4 38-6 58-6" stroke="#FFFFFF" stroke-width="16" stroke-linecap="round" opacity="0.8" />
  <path d="M362 388c20-4 40-8 60-16" stroke="#FFFFFF" stroke-width="16" stroke-linecap="round" opacity="0.8" />
</svg>
